<svg xmlns="http://www.w3.org/2000/svg" fill="none" viewBox="0 0 24 24" height="24" width="24"><path fill="#66e1ff" d="M19.5 3.001h-15a1 1 0 0 0 -1 1v10a1 1 0 0 0 1 1h15a1 1 0 0 0 1 -1v-10a1 1 0 0 0 -1 -1Z" stroke-width="1"></path><path fill="#c2f3ff" d="M4.5 3a1 1 0 0 0 -1 1v10a0.976 0.976 0 0 0 0.165 0.518L15.183 3H4.5Z" stroke-width="1"></path><path fill="#e3e3e3" stroke="#191919" stroke-linecap="round" stroke-linejoin="round" d="M4.409 15a1.024 1.024 0 0 0 -0.883 0.5l-2.385 4a1 1 0 0 0 0.883 1.5h19.952a1 1 0 0 0 0.883 -1.5l-2.385 -4a1.024 1.024 0 0 0 -0.883 -0.5H4.409Z" stroke-width="1"></path><path stroke="#191919" stroke-linecap="round" stroke-linejoin="round" d="M9.5 19.001h5" stroke-width="1"></path><path fill="#ffffff" d="M12 6.7s0.92 -1.291 3.983 -1.424a0.5 0.5 0 0 1 0.517 0.5v5.3a0.5 0.5 0 0 1 -0.492 0.5C12.925 11.7 12 13 12 13V6.7s-0.92 -1.291 -3.983 -1.424a0.5 0.5 0 0 0 -0.517 0.5v5.3a0.5 0.5 0 0 0 0.492 0.5C11.075 11.7 12 13 12 13" stroke-width="1"></path><path stroke="#191919" stroke-linecap="round" stroke-linejoin="round" d="M12 6.7s0.92 -1.291 3.983 -1.424a0.5 0.5 0 0 1 0.517 0.5v5.3a0.5 0.5 0 0 1 -0.492 0.5C12.925 11.7 12 13 12 13V6.7Zm0 0s-0.92 -1.291 -3.983 -1.424a0.5 0.5 0 0 0 -0.517 0.5v5.3a0.5 0.5 0 0 0 0.492 0.5C11.075 11.7 12 13 12 13" stroke-width="1"></path><path stroke="#191919" stroke-linecap="round" stroke-linejoin="round" d="M19.5 3.001h-15a1 1 0 0 0 -1 1v10a1 1 0 0 0 1 1h15a1 1 0 0 0 1 -1v-10a1 1 0 0 0 -1 -1Z" stroke-width="1"></path></svg>