<svg xmlns="http://www.w3.org/2000/svg" fill="none" viewBox="0 0 24 24" height="24" width="24"><path fill="#ffffff" d="M12 23.376V7c0 -1.82 -4.565 -3.315 -9.983 -3.484A1 1 0 0 0 1 4.518v14.5a1 1 0 0 0 0.984 1C7.416 20.18 12 21.677 12 23.5v-0.124Z" stroke-width="1"></path><path fill="#fff9bf" d="M12 23.376V7c0 -1.82 4.565 -3.315 9.983 -3.484a1 1 0 0 1 1.017 1v14.5a1 1 0 0 1 -0.984 1C16.584 20.18 12 21.677 12 23.5v-0.124Z" stroke-width="1"></path><path stroke="#191919" stroke-linecap="round" stroke-linejoin="round" d="M23 10v9.021a1 1 0 0 1 -0.984 1C16.583 20.18 12 21.677 12 23.5c0 -1.824 -4.584 -3.321 -10.016 -3.485a1 1 0 0 1 -0.984 -1V4.518a1 1 0 0 1 1.017 -1C7.435 3.686 12 5.181 12 7" stroke-width="1"></path><path stroke="#191919" stroke-linecap="round" stroke-linejoin="round" d="M3.5 8c2.23 0.118 4.425 0.598 6.5 1.421" stroke-width="1"></path><path stroke="#191919" stroke-linecap="round" stroke-linejoin="round" d="M3.5 11.405c2.23 0.117 4.425 0.597 6.5 1.419" stroke-width="1"></path><path stroke="#191919" stroke-linecap="round" stroke-linejoin="round" d="M3.5 14.809c2.23 0.117 4.425 0.596 6.5 1.419" stroke-width="1"></path><path stroke="#191919" stroke-linecap="round" stroke-linejoin="round" d="M12 7.001v16.375" stroke-width="1"></path><path fill="#ffef5e" stroke="#191919" stroke-linecap="round" stroke-linejoin="round" d="M21 6.5a3 3 0 1 0 -4 2.817V10.5h2V9.318A2.991 2.991 0 0 0 21 6.5v0Z" stroke-width="1"></path><path stroke="#191919" stroke-linecap="round" stroke-linejoin="round" d="M17 12.501h2" stroke-width="1"></path><path stroke="#191919" stroke-linecap="round" stroke-linejoin="round" d="M17.5 14.501h1" stroke-width="1"></path><path stroke="#191919" stroke-linecap="round" stroke-linejoin="round" d="M18 1.501v-1" stroke-width="1"></path><path stroke="#191919" stroke-linecap="round" stroke-linejoin="round" d="m21.536 2.966 0.707 -0.707" stroke-width="1"></path><path stroke="#191919" stroke-linecap="round" stroke-linejoin="round" d="m14.465 2.966 -0.708 -0.707" stroke-width="1"></path></svg>